<svg xmlns="http://www.w3.org/2000/svg" width="31" height="26" viewBox="0 0 31 26">
<defs>
    <style>
      .cls-1 {
        fill: #6a9c00;
        fill-rule: evenodd;
      }
    </style>
  </defs>
  <path id="Forma_1" data-name="Forma 1" class="cls-1" d="M781.612,4531.15l4.171,3.48a0.622,0.622,0,0,1,.08.86l-17.922,21.29a0.567,0.567,0,0,1-.529.21,0.6,0.6,0,0,1-.377-0.14l-11.806-9.88a0.62,0.62,0,0,1-.091-0.87l3.487-4.14a0.628,0.628,0,0,1,.88-0.06l7.192,6.01,14.052-16.69A0.6,0.6,0,0,1,781.612,4531.15Z" transform="translate(-755 -4531)"/>
</svg>
