<svg xmlns="http://www.w3.org/2000/svg" width="60" height="60" viewBox="0 0 60 60">
    <path
        id="Forma_1"
        data-name="Forma 1"
        class="cls-1"
        d="M2151,2884a30,30,0,1,0,30,30A30.037,30.037,0,0,0,2151,2884Zm0,58a28,28,0,1,1,28-28A28.031,28.031,0,0,1,2151,2942Zm1-31.98v-10.14a1,1,0,0,0-2,0v10.14a4,4,0,0,0-2.86,2.86H2140a1,1,0,0,0,0,2h7.14A3.993,3.993,0,1,0,2152,2910.02Zm-1,5.86a2,2,0,1,1,2-2A2.006,2.006,0,0,1,2151,2915.88Zm0-22a1,1,0,0,0,1-1v-1a1,1,0,0,0-2,0v1A1,1,0,0,0,2151,2893.88Zm0,40a1,1,0,0,0-1,1v1a1,1,0,0,0,2,0v-1A1,1,0,0,0,2151,2933.88Zm22-21h-1a1,1,0,0,0,0,2h1A1,1,0,0,0,2173,2912.88Zm-43,0h-1a1,1,0,0,0,0,2h1A1,1,0,0,0,2130,2912.88Zm35.85-15.26-0.71.7a1.008,1.008,0,0,0,0,1.42,1.014,1.014,0,0,0,1.42,0l0.7-.71A1,1,0,1,0,2165.85,2897.62Zm-30.41,30.4-0.7.71a1,1,0,0,0,0,1.41,0.978,0.978,0,0,0,1.41,0l0.71-.7A1,1,0,0,0,2135.44,2928.02Zm31.12,0a1,1,0,0,0-1.42,1.42l0.71,0.7a0.978,0.978,0,0,0,1.41,0,1,1,0,0,0,0-1.41Zm-30.41-30.4a0.978,0.978,0,0,0-1.41,0,1,1,0,0,0,0,1.41l0.7,0.71a1.042,1.042,0,0,0,.71.29,1.024,1.024,0,0,0,.71-0.29,1.008,1.008,0,0,0,0-1.42Z"
        transform="translate(-2121 -2884)"/>
</svg>
