<svg xmlns="http://www.w3.org/2000/svg" width="54.94" height="56.94" viewBox="0 0 54.94 56.94">
    <path 
        id="Forma_1"
        data-name="Forma 1"
        class="cls-1"
        d="M2178.89,2826.01a1.006,1.006,0,0,0-.82-0.69l-7.77-1.09-3.46-6.79a1.039,1.039,0,0,0-1.78,0l-3.47,6.79-7.77,1.09a0.993,0.993,0,0,0-.81.69,1.009,1.009,0,0,0,.27,1.03l5.6,5.28-1.32,7.44a0.992,0.992,0,0,0,.39.98,0.979,0.979,0,0,0,1.04.08l6.96-3.53,6.96,3.53a0.883,0.883,0,0,0,.45.11,0.967,0.967,0,0,0,.59-0.19,0.992,0.992,0,0,0,.39-0.98l-1.32-7.44,5.6-5.28A1.009,1.009,0,0,0,2178.89,2826.01Zm-7.63,5.22a0.982,0.982,0,0,0-.3.9l1.06,6-5.62-2.86a1.03,1.03,0,0,0-.45-0.11,1,1,0,0,0-.45.11l-5.63,2.86,1.07-6a1.008,1.008,0,0,0-.3-0.9l-4.48-4.22,6.22-.87a1.023,1.023,0,0,0,.75-0.54l2.82-5.51,2.81,5.51a1.023,1.023,0,0,0,.75.54l6.22,0.87Zm-2.32-35.21h-17.97a1.005,1.005,0,0,0,0,2.01h17.97A1.005,1.005,0,0,0,2168.94,2796.02Zm0,14.03h-17.97a1,1,0,0,0,0,2h17.97A1,1,0,0,0,2168.94,2810.05Zm-24.39-18.79a0.986,0.986,0,0,0-1.4.1l-6.24,7.3-3.82-2.87a1,1,0,0,0-1.2,1.6l4.57,3.44a1,1,0,0,0,.59.2,0.978,0.978,0,0,0,.76-0.35l6.85-8.01A1,1,0,0,0,2144.55,2791.26Zm0,14.02a0.987,0.987,0,0,0-1.4.11l-6.24,7.3-3.82-2.87a1,1,0,0,0-1.2,1.6l4.57,3.43a0.936,0.936,0,0,0,.59.2,0.978,0.978,0,0,0,.76-0.35l6.85-8.01A1,1,0,0,0,2144.55,2805.28Zm-1.4,15.13-6.24,7.3-3.82-2.87a1,1,0,0,0-1.2,1.6l4.57,3.44a1,1,0,0,0,.59.2,0.978,0.978,0,0,0,.76-0.35l6.85-8.01a1.011,1.011,0,0,0-.11-1.42A0.987,0.987,0,0,0,2143.15,2820.41Zm7.82,15.68h-14.81A10.181,10.181,0,0,1,2126,2825.9v-29.7a10.181,10.181,0,0,1,10.16-10.19h29.61a10.189,10.189,0,0,1,10.17,10.19v23.94a1,1,0,1,0,1.99,0V2796.2a12.189,12.189,0,0,0-12.16-12.2h-29.61a12.189,12.189,0,0,0-12.16,12.2v29.7a12.187,12.187,0,0,0,12.16,12.19h14.81A1,1,0,0,0,2150.97,2836.09Z"
        transform="translate(-2124 -2784)"/>
</svg>
