<svg id="objects" xmlns="http://www.w3.org/2000/svg" viewBox="0 0 782.66 509.98">
    <path
        class="cls-1"
        d="M492.44,275.1a4.34,4.34,0,0,0-4.14,3.34c-.22.79-.69,1.93-1.29,2.11-1.7.51-1.17,1.67-1.17,2.73l-.4,1.45c-.41,1.74-1.33,3.37-1.09,5.25l-.09.56h0a38.7,38.7,0,0,1-4.09,7.8,20.26,20.26,0,0,0-2.66,6l-2.06,6.87-1,.73c-.87.85-2.54.91-2.57,2.59a.47.47,0,0,0-.16.16l-4.73,5c-2.4.19-2.18,2.76-3.55,3.88h0l-.53.54c-2.79,2.68-6.53,4-9.49,6.4-1.34.13-2.31,1.32-3.71,1.27h0a7.48,7.48,0,0,0-3,3h0l-.61.67-6.78,3.78c-1.34.4-2.33,1.64-3.86,1.56s-2.39,1.36-3.72,1.77c-6.67.64-13.54.17-19.67,3.68-1.32-.08-1.56.68-1.38,1.77h0l-1,1h0c-1,.07-2-.4-2.79.52-1,.38-2.13-.4-3,.59-.55.81-1.13-.3-1.69,0-1.1.09-2.29-.41-3.29.45h0c-3.29,1-6.71.59-10.06.93-1.49.82-2.86-.34-4.3-.25a3.65,3.65,0,0,0-3.7,0h0v.18l-.55-.1-2.09-1c-1.33.32-2.33-1.89-3.81-.49-2-.47-3.56-2.1-5.77-1.64l-1.59-.4c-1.28-1.54-3.31-.55-4.79-1.4l-.51-.14-2.68-.9-1.53-1.2a3.39,3.39,0,0,0-2.18-.9L346.77,339l-4.31-3c-.89-1.59-1.87-3.1-3.72-3.75-1.1-1.24-2.38-2.3-3-3.91A2,2,0,0,0,333.4,327c-2.39-.74-2.06-3-2.7-4.73,0-.42,0-.88-.54-1.06a4,4,0,0,0-2.66-3c-.81-.58-1.5-1.45-2.69-1.1a1.17,1.17,0,0,0-.74-1.16l-.78-.78c-.42-.92-1-.49-1.58-.2l-.63-.39c-.48-2.56-3-4-5.84-3.21h0c-.08-1.12-1.43-1.18-1.76-2.09-1.58-1.17-4.08-.51-5.18-2.62a3.81,3.81,0,0,0-1.1-2.13l-2.86-6.25h0L301.21,292c-1.2-2.07-1.32-4.67-3.22-6.38a16.2,16.2,0,0,0-1.7-6.25c-.72-2.79-.19-5.74-1.08-8.51,1-1.32-.37-2.84.37-4.18a5.12,5.12,0,0,0,.07-3.44l.07-.15a1.48,1.48,0,0,0,0-1.11,2.64,2.64,0,0,0-1.21-1.77c-.27-.18-.47-.55-.83-.47l.13-.11c-.21-.62.1-1.36-.46-1.89-.47-.22-.44-.68-.5-1.09v-2c-.07-.2-.19-.26-.33-.18a2.33,2.33,0,0,1,.08-.46c-.12-.86.23-1.77-.29-2.58-.48-.21-.51-.66-.6-1.09-.08-.69.64-1.17.43-2a7.81,7.81,0,0,1,1.1-7.13h0l1-1a2.83,2.83,0,0,0,1.09-2.63c.35-1.14.25-2.49,1.53-3.19a2.12,2.12,0,0,0,.24-2.13.33.33,0,0,0-.27,0l1.08-2.68a4.29,4.29,0,0,0,1.06-2.62h0l1.36-1.14a1.94,1.94,0,0,0,1.24-2.65l-.2.42a2.5,2.5,0,0,1,.2-.42c1.06-3.77,2.91-7.35,2.67-11.44,0-.41.51-.86.78-1.29,1.5,0,1-.8.65-1.55l-.13.31a.63.63,0,0,1,.13-.31,4.3,4.3,0,0,0-.13-4.19,16.94,16.94,0,0,1,2.73-6.88h0c1.35-.78,2.12-2.11,3.09-3.25a2.72,2.72,0,0,0,.31-3.83l0-.06c-1.22-1.17-2.3.33-3.18,1.28-1.17,1.26-2.31,2.56-3.46,3.84-1.94,1.19-2.25,3.37-3.15,5.19-3.07,3.6-6.25,7.14-7.79,11.76a42.37,42.37,0,0,0-3.22,7.26,77.66,77.66,0,0,0-2.88,11.23c-.52,4.27.08,8.66-1.07,12.82a24.28,24.28,0,0,0-.81,8.95c0,2-.1,4,0,6,.17,2.57-.56,5.21.49,7.72.24,1.77,0,3.66,1.2,5.21.65,1.19-.11,2.57.52,3.76.13,2.69,1.36,5.07,2,7.56,1,3.58,1.59,7.28,3.28,10.61.92,1.81.45,4.19,2.39,5.54h0c.44,2.12,1,4.21,3.16,5.28.28.93-.08,2.12,1.16,2.63.83.44,1.08,1.29,1.47,2s1.27.63,1.24,1.53c-.08,2.54,1.88,4.25,2.65,6.44.14,1.12,1.13,1.68,1.66,2.55h0l.67,1.6a10.71,10.71,0,0,0,3.1,4.15c1.83,1.91,3.47,4,5.87,5.33l.53.53,3.8,3a5.65,5.65,0,0,0,2.7,1.47c1.74,1.14,2.85,3.28,5.29,3.3.94,1.69,2.78,1.8,4.31,2.44l1.06.47c2.2,2.32,5.08,3.34,7.9,4.72a83.4,83.4,0,0,0,12.58,5.09c1.32.4,2.8-.31,4,.68.63.6,1.28,1.07,2.17.47l4.22.9c2.28-.12,4.27,1,6.37,1.56l2.15.17c.83.82,1.85.36,2.79.4h.2l.19.07c1,1,2.2.36,3.31.45h0l8.9,1.49c1.19,1.09,2.6.37,3.91.48h0a20.32,20.32,0,0,0,5.79,1.21c4.16.42,8.41-.13,12.62-.29a1.81,1.81,0,0,0,2.56.09l.09-.09.21-.09h.23c1.86-.18,3.79.41,5.61-.36a1.34,1.34,0,0,0,.3-.12,39.16,39.16,0,0,0,8.51-3.12.72.72,0,0,0,.45-.24,12.89,12.89,0,0,0,3.31-1.46c4.44-2.86,8.73-5.91,13.74-7.88,2.33-.92,5.13-1.26,6.8-3.55a1.51,1.51,0,0,0,1.54-1.1l9.76-7.51c2.82-3.76,7-6.2,9.7-10.09a2.9,2.9,0,0,0,2.07-2.21c.61-.11,1-.4,1-1.07a27.6,27.6,0,0,0,4.73-5.84,15.36,15.36,0,0,0,2.65-3.73c.58-.17.45-.65.47-1.07a2.45,2.45,0,0,0,1-.67c3.11-3.92,4.49-8.63,6.24-13.18a14,14,0,0,0,2.07-6.37c.87-1.85.39-4,1.51-5.82,1-1,.37-2.25.43-3.39C496.48,275.69,496.15,275.27,492.44,275.1Zm-20,48.86v.15a.79.79,0,0,0-.21-.11.51.51,0,0,1,.23,0h0Zm15.73-19.22Zm-47.35,41.18Zm-28.65.89ZM362.24,350l.11-.08A.27.27,0,0,1,362.24,350Zm13.72.88h0Zm-49.39-15.39h0ZM289.23,267.2Zm3.16-1.64Zm1.06.94h0a.36.36,0,0,1-.12-.09l.1.06Zm37.23,57.65v-.06c0-.06,0,0,0,.06Zm-35-44.84h0s0,0,0,0Zm5.91-70V209l.15.23Zm-4.53.66Zm4-7-.08.2a.3.3,0,0,1,.1-.17Zm-5.54,9.64h0l-.06-.06h.09Z"/><path
        class="cls-1"
        d="M498.18,252.75c.07-.36.1-.74.15-1.13.12-.89-.93-1.68-.13-2.49a1.07,1.07,0,0,0,.56-.12,34.49,34.49,0,0,0-.13-7.81c-.71-3.93-1.12-7.93-2.93-11.57-.24-1.79-.61-3.53-2.1-4.77-.07-2.19-2-3.39-2.78-5.24,0-.58.26-1.21-.43-1.6h0l-1.06-1.58c-1-2.4-3.26-4.14-3.81-6.82-.8.24-.66,1.09-1,1.6.59,2.6,1.19,5.17.16,7.84a2.69,2.69,0,0,0,.56,2.72v.54c-.12.87-1.07,1.73,0,2.6a2,2,0,0,1,.41.09l-.41-.09c0,.59-.21,1.21.42,1.62a41.69,41.69,0,0,0,.94,7.37h0c0,1.32,1.17,2.33.94,3.7l1,2.07c.21.71-.11,1.55.54,2.15l.56,1c.07.86-.13,1.78.58,2.49.14.57-.19,1.29.53,1.68a17.91,17.91,0,0,0,.55,2c.94,2.34.15,5.33,2.69,7.06v1.53c-.36,2.68,1.36,2.79,3.29,2.64.88-.12,1.48-.53,1.54-1.49l.4-6.5A1.08,1.08,0,0,0,498.18,252.75Z"/><path
        class="cls-1"
        d="M320.14,184.81c.44,0,.87,0,1-.51h0c2.36-1.79,3.94-4.57,7.07-5.42.57-.16,1-.94,1.45-1.44l2.13-.14,2.1.12h1.59l1-.62c1.28-.05,2.57-.36,3.82.18.89.16,1.82-.21,2.68.25,2.87.65,4-1.67,5.62-3.21h0l5.92-5.31,3.15-1.8a5.92,5.92,0,0,0,2.54-.95h.06l2.53-.54a2.26,2.26,0,0,0,.49-.36,2.09,2.09,0,0,0,2.21-.3c.26-.43.71-.41,1.13-.49,3.52-.7,7-1.43,10.55-2.14l2.58-.05a6.53,6.53,0,0,1,2.62-.26c0,.11.08.19.22.24a10.22,10.22,0,0,1,4.7-.56c1,1.86,2.54,1.2,3.75.57a5,5,0,0,1,4.74-.11,4.52,4.52,0,0,0,3.17,0l3.82-.14h0l2,.12a8.13,8.13,0,0,0,3.19,1,1.52,1.52,0,0,0,.38.17,11.59,11.59,0,0,0,6,.73,25.72,25.72,0,0,0,4.83,1.74c2,.38,4-.3,5.85.73.64,1.51,1.92,1.72,3.35,1.63,1.12-.37,1.64.7,2.47,1,1.35,1.59,5.56,1.9,6.8.54.25-.28.56-.56.39-.87-.68-1.26.17-2.39.22-3.58a3.28,3.28,0,0,0-1.57-3.28,49.37,49.37,0,0,0-13.25-5.9c-2.8-.87-5.48-2.09-8.45-2.39a15.58,15.58,0,0,1-5.57-1.13h0c-1.48-1.08-3.17-.25-4.74-.52h0a1,1,0,0,0-1.66,0h-4.19c-1.71,0-3.77-1.16-4.66,1.47,0,.13-.48.14-.73.2h0l-1.08,1a62.52,62.52,0,0,0-9.41-1.74,2.36,2.36,0,0,0-2.15,1.35l-.59-.24c-.37-.67-.75-.15-1.13,0-.62.6-1.21,1.28-2.22,1.06a5.84,5.84,0,0,0-.66-.07,3.18,3.18,0,0,1-1.62-.3,2.07,2.07,0,0,0-.68-.15,3.17,3.17,0,0,0-1.53.69.54.54,0,0,0,0-.76l-.11-.09c-1.2-.37-2.08-3-3.69-.51a1.11,1.11,0,0,0,0,1.51,1.32,1.32,0,0,0-.3.55c-1.07.22-1-1.2-1.75-1.47a2,2,0,0,1-.36,1.76,2.27,2.27,0,0,0-.42.17c-.65-.39-.86-1.42-1.85-1.34l-1.57.5v-.16a1.16,1.16,0,0,0-1,.07L356.52,157a22.69,22.69,0,0,0-6.31,2.3h0L346,161.4h0c-.59,0-1.21-.1-1.63.49l-1.07,1a6.65,6.65,0,0,0-4.59,2.3.61.61,0,0,0,0,.45l-.6.53c-.75.35-1.61.56-2,1.38a.64.64,0,0,0-.64.23l-2,1.22c-.6.49-1.14,1.07-1.78,1.51l-.88.67c-.91.27-2,.34-2.1,1.61,0,.83-.93.9-1.23,1.48l-1.47.08c-.76.51-1.79.68-2.18,1.67-1.16,2.61-3.8,3.55-5.84,5.16-.94,1.17-1.56,2.38-.46,3.79C318.5,186.62,319.32,185.74,320.14,184.81Zm24.76-19.3Zm3.56,8.49h0Zm73.41-16.13v.1h-.06Z"/><path class="cls-1" d="M476.82,200.14c.92-.41,2.71-.14,1.63-2.09-.61-.39-1-1.74-2-.63C475.72,198.32,475.35,199.41,476.82,200.14Z"/><path class="cls-1" d="M452.35,174.51a1.4,1.4,0,0,0,1.29-.73c.39-.85-.69-.81-.9-1.31-.92-.64-1.58-.35-2.07.57C450.7,174.13,451.3,174.57,452.35,174.51Z"/><path
        class="cls-1"
        d="M459.12,235c1.42,3.42,0,14.79,0,14.79a7.51,7.51,0,0,1-1.62,4.66l-.13.17c-7.93,10.65-16.68,12.4-28,5.62-1-.57-2-1-2.67-1.34l-16.3,12.9c4.63,3.45,11.32.58,14.81,6.17-.88.81-1.4,1.59-2.12,1.89A21.52,21.52,0,0,1,418,281.5a231.39,231.39,0,0,1-66.29-.09c-2.65-.39-6-.58-7.12-5.12l14.8-4.14c-16.71-11-28.57-24.15-28.09-44.68H451.6C455.31,227.48,457.54,231.18,459.12,235Zm-20.66,2-5.21,13.31c5,4.59,9,5.58,12.71,3.17s4.69-6,3.89-10.07C448.94,238.75,446.12,237.15,438.46,237Z"/>
    <g class="cls-2">
        <g class="cls-2"><path
            class="cls-1"
            d="M23.16,272.63a5.48,5.48,0,0,0,4.27-1.55,6.47,6.47,0,0,0,1.41-4.5H41.59l.08.25a14.72,14.72,0,0,1-5.07,12q-5.24,4.62-13.44,4.62-10.23,0-15.76-6.32T1.86,260.62v-1q0-10.11,5.51-16.45t15.7-6.34q8.53,0,13.65,4.74t5,13l-.08.25H28.83a8.68,8.68,0,0,0-1.45-5.2,5,5,0,0,0-4.31-2,5.76,5.76,0,0,0-5.65,3.25,20.11,20.11,0,0,0-1.59,8.76v1a20,20,0,0,0,1.59,8.82Q19,272.63,23.16,272.63Z"/><path
            class="cls-1"
            d="M45.53,259.71q0-10.11,5.72-16.47t15.95-6.36q10.27,0,16,6.36t5.72,16.47v.87q0,10.15-5.72,16.49T67.28,283.4q-10.32,0-16-6.34t-5.72-16.49Zm14,.87q0,5.64,1.76,8.84t6,3.21a6.19,6.19,0,0,0,5.88-3.23,18.38,18.38,0,0,0,1.78-8.82v-.87a18.45,18.45,0,0,0-1.78-8.76,6.24,6.24,0,0,0-6-3.29,6.15,6.15,0,0,0-5.9,3.31,18.65,18.65,0,0,0-1.76,8.74Z"/><path
            class="cls-1"
            d="M98.1,282.53V247.4H91.63v-9.69H98.1v-4.64q0-7.71,4.64-11.87T115.87,217a23.64,23.64,0,0,1,3.25.23q1.64.23,3.67.64l-1,10.31q-1.16-.21-2-.31a18.41,18.41,0,0,0-2.11-.1,5.6,5.6,0,0,0-4.06,1.37,5.18,5.18,0,0,0-1.41,3.89v4.64H121v9.69h-8.86v35.13Z"/></g>
        <g class="cls-2"><path
            class="cls-1"
            d="M129.45,282.53V247.4H123v-9.69h6.46v-4.64q0-7.71,4.64-11.87T147.22,217a23.64,23.64,0,0,1,3.25.23q1.64.23,3.67.64l-1,10.31q-1.16-.21-2-.31a18.41,18.41,0,0,0-2.11-.1,5.6,5.6,0,0,0-4.06,1.37,5.18,5.18,0,0,0-1.41,3.89v4.64h8.86v9.69h-8.86v35.13Z"/></g>
        <g class="cls-2"><path
            class="cls-1"
            d="M176.05,283.4q-10.19,0-16-6.17t-5.78-15.62V260q0-10.27,5.45-16.74t15.76-6.42q9.07,0,14.06,5.43t5,14.87v7.33H168.88l-.08.25a8.7,8.7,0,0,0,2.61,5.7q2.28,2.17,6.54,2.17a28.34,28.34,0,0,0,6.69-.66,42,42,0,0,0,6.11-2.11l3.36,8.53a25.62,25.62,0,0,1-7.79,3.56A35.94,35.94,0,0,1,176.05,283.4Zm-.54-35.75a5.78,5.78,0,0,0-5,2.13,10.71,10.71,0,0,0-1.84,5.78l.08.21h12.1v-1.08a9.32,9.32,0,0,0-1.22-5.26Q178.45,247.65,175.51,247.65Z"/><path
            class="cls-1"
            d="M220.38,283.4q-10.19,0-16-6.17t-5.78-15.62V260q0-10.27,5.45-16.74t15.76-6.42q9.07,0,14.06,5.43t5,14.87v7.33H213.21l-.08.25a8.7,8.7,0,0,0,2.61,5.7q2.28,2.17,6.54,2.17A28.34,28.34,0,0,0,229,272a42,42,0,0,0,6.11-2.11l3.36,8.53a25.62,25.62,0,0,1-7.79,3.56A35.94,35.94,0,0,1,220.38,283.4Zm-.54-35.75a5.78,5.78,0,0,0-5,2.13,10.71,10.71,0,0,0-1.84,5.78l.08.21h12.1v-1.08a9.32,9.32,0,0,0-1.22-5.26Q222.78,247.65,219.84,247.65Z"/></g>
    </g>
    <g class="cls-2">
        <g class="cls-2"><path
            class="cls-1"
            d="M557.81,237.71l.5,5.92a14.82,14.82,0,0,1,5.32-5,15,15,0,0,1,7.35-1.76,13.7,13.7,0,0,1,7.21,1.82,11.2,11.2,0,0,1,4.56,5.55,15,15,0,0,1,5.32-5.45,14.64,14.64,0,0,1,7.6-1.93,12.45,12.45,0,0,1,10.29,4.7q3.75,4.7,3.75,14.48v26.47h-14V256.06q0-4.81-1.35-6.61a4.72,4.72,0,0,0-4-1.8,8.38,8.38,0,0,0-3.58.73,7.56,7.56,0,0,0-2.63,2q0,.7,0,1.22c0,.35,0,.68,0,1v29.91h-14V256.06q0-4.85-1.33-6.63a4.78,4.78,0,0,0-4.1-1.78,8.08,8.08,0,0,0-3.46.73,7.56,7.56,0,0,0-2.63,2v32.15h-14V237.71Z"/><path
            class="cls-1"
            d="M643.6,282.49a16.85,16.85,0,0,1-1.35-3.19,24.39,24.39,0,0,1-.85-3.73,17.11,17.11,0,0,1-4.49,5.7,10.85,10.85,0,0,1-7,2.13q-7,0-11-3.62t-3.92-9.88a12,12,0,0,1,5-10.29q5-3.63,15.2-3.63H641v-3.19a6.39,6.39,0,0,0-1.37-4.39,5.33,5.33,0,0,0-4.18-1.53,5,5,0,0,0-3.62,1.14,4.73,4.73,0,0,0-1.18,3.54l-13.59,0-.08-.25q-.29-6.13,5.12-10.25t14.27-4.12q8.33,0,13.48,4.14T655,252.87v16.9a34.41,34.41,0,0,0,.6,6.63,35.3,35.3,0,0,0,1.8,6.13Zm-9.86-9.07a8.52,8.52,0,0,0,4.54-1.2,6.88,6.88,0,0,0,2.75-2.86v-5.92H635.4q-3.35,0-4.85,1.62a5.81,5.81,0,0,0-1.49,4.1,4,4,0,0,0,1.3,3.09A4.84,4.84,0,0,0,633.74,273.42Z"/></g>
        <g class="cls-2"><path class="cls-1" d="M679.27,264.72h-2.53v17.81h-14V217.91h14v36.25h2l9.44-16.45h16l-13.79,20.22,16.07,24.61H690.53Z"/></g>
        <g class="cls-2"><path
            class="cls-1"
            d="M728.18,283.4q-10.19,0-16-6.17t-5.78-15.62V260q0-10.27,5.45-16.74t15.76-6.42q9.07,0,14.06,5.43t5,14.87v7.33H721l-.08.25a8.7,8.7,0,0,0,2.61,5.7q2.28,2.17,6.54,2.17a28.34,28.34,0,0,0,6.69-.66,42,42,0,0,0,6.11-2.11l3.36,8.53a25.63,25.63,0,0,1-7.79,3.56A35.94,35.94,0,0,1,728.18,283.4Zm-.54-35.75a5.78,5.78,0,0,0-5,2.13,10.71,10.71,0,0,0-1.84,5.78l.08.21H733v-1.08a9.32,9.32,0,0,0-1.22-5.26Q730.58,247.65,727.64,247.65Z"/><path class="cls-1" d="M777.4,249.64l-4.56,0a7.76,7.76,0,0,0-3.94.89,5.5,5.5,0,0,0-2.28,2.51v29.54h-14V237.71H765.8l.5,6.59a13.52,13.52,0,0,1,3.73-5.47,8.18,8.18,0,0,1,5.43-1.95,10.51,10.51,0,0,1,1.7.12,13,13,0,0,1,1.57.37Z"/></g>
    </g>
    <g class="lights">
        <path class="cls-1" d="M394.59,0V33.25h-3.44V0Z"/><path class="cls-1" d="M391.89,452.23v-56h1.41v56Z"/><path class="cls-1" d="M393.6,59.55v56h-1.26v-56Z"/><path class="cls-1" d="M221.4,353.1l49.54-28.55,1.41,2.45-49.42,28.49Z"/><path class="cls-1" d="M515,324.67l49.44,28.51L563,355.59l-49.42-28.42Z"/><path class="cls-1" d="M564.4,158.63,515,187.15l-1.39-2.41L563,156.2Z"/><path class="cls-1" d="M270.94,187.25,221.4,158.7l1.41-2.48,49.53,28.56Z"/><path class="cls-1" d="M265.3,405.46l36.14-43,2.21,1.84-36.12,43Z"/><path class="cls-1" d="M518.28,407.38l-36.15-43.06,2.13-1.8,36.15,42.91Z"/><path class="cls-1" d="M482.16,147.45l36.12-43,2.23,1.87-36.2,43.06Z"/><path class="cls-1" d="M267.42,104.4l36,42.87-2.11,1.85-36-42.67Z"/><path class="cls-1" d="M458.81,440.87l-19.31-53L442,387l19.5,53.17Z"/><path class="cls-1" d="M461.5,71.69,442.07,125l-2.57-.92,19.29-53.13Z"/><path class="cls-1" d="M346.28,387.67l-19.36,53.27-2.58-.92,19.35-53.28Z"/><path class="cls-1" d="M326.93,70.92l19.32,53.19-2.56.92-19.45-53.3Z"/><path class="cls-1" d="M286.18,347.13,257.54,371l-1.78-2.12L284.28,345Z"/><path class="cls-1" d="M530,142.88l-28.56,23.85-1.79-2.11L528,140.79Z"/><path class="cls-1" d="M284.23,166.77,255.81,143l1.8-2.22,28.56,23.87Z"/><path class="cls-1" d="M501.42,345,530,368.91l-1.79,2.19L499.6,347.22Z"/><path class="cls-1" d="M480.34,410l-18.6-32.25,2.44-1.41,18.63,32.23Z"/><path class="cls-1" d="M303,408.55l18.61-32.2,2.5,1.4-18.64,32.19Z"/><path class="cls-1" d="M482.63,103.62l-18.57,31.85-2.4-1.38,18.7-32.28Z"/><path class="cls-1" d="M321.68,135.49l-18.6-31.94,2.35-1.39L324,134.09Z"/><path class="cls-1" d="M415.92,117.16l6.52-35.85,2.54.48-6.43,36.07Z"/><path class="cls-1" d="M360.71,430.1l6.42-36.1,2.55.42-6.25,35.94Z"/><path class="cls-1" d="M363.37,81.39l6.43,36.11-2.49.48-6.68-36.25Z"/><path class="cls-1" d="M418.6,394l6.4,36.1-2.51.48-6.66-36.26Z"/><path class="cls-1" d="M201,368.19l-28.17,16.17L171.4,382l28.08-16.33Z"/><path class="cls-1" d="M586.19,365.63l28.19,16.44L613,384.43l-28.27-16.3Z"/><path class="cls-1" d="M392.2,510V478.58h1.41V510Z"/><path class="cls-1" d="M614.3,129.94l-28,16.13-1.45-2.43,28-16.18Z"/><path class="cls-1" d="M172.72,127.39,201,143.68l-1.44,2.51-28.18-16.45Z"/><path class="cls-1" d="M555.49,451.62,534.78,427l2.25-1.86,20.61,24.66Z"/><path class="cls-1" d="M251,427l-20.68,24.63-2.24-1.8,20.67-24.63Z"/><path class="cls-1" d="M230.29,60.23,251,84.85l-2.26,1.85L228.11,62Z"/><path class="cls-1" d="M557.64,62,537,86.69l-2.25-1.87L555.5,60.17Z"/><path class="cls-1" d="M478.57,495l-10.82-29.72,2.59-1,10.8,29.59Z"/><path class="cls-1" d="M318,465.14,307.23,494.9l-2.44-.83,10.48-29.64Z"/><path class="cls-1" d="M307.14,16.64l10.87,30-2.57.92-10.89-30Z"/><path class="cls-1" d="M467.72,46.66l10.87-30,2.6.93-10.89,30Z"/><path class="cls-1" d="M595.86,331.14,567.14,320.7l.92-2.6,28.72,10.44Z"/><path class="cls-1" d="M218.52,320.75l-28.6,10.35-.9-2.38,28.55-10.63Z"/><path class="cls-1" d="M596.86,183.17,568,193.74l-1-2.58,28.89-10.5Z"/><path class="cls-1" d="M217.32,193.69l-28.45-10.57.93-2.45,28.91,10.51Z"/><path class="cls-1" d="M499.43,443l-14.5-25.13,2.45-1.43L502,441.71Z"/><path class="cls-1" d="M431.64,44l-5.15,28.91L424,72.49l5.1-28.92Z"/><path class="cls-1" d="M356.64,43.54l5.17,29-2.54.47-5.2-29Z"/><path class="cls-1" d="M559,118.54l-22.41,18.91-1.76-2,22.4-19Z"/><path class="cls-1" d="M283.8,441.67l14.63-25.29,2.44,1.36-14.61,25.33Z"/><path class="cls-1" d="M286.21,68.66,300.77,93.8l-2.44,1.47-14.5-25.06Z"/><path class="cls-1" d="M557.2,395.48l-22.49-19,1.74-2.15L559,393.21Z"/><path class="cls-1" d="M354.09,467.8l5.16-28.92,2.53.46-5.11,28.92Z"/><path class="cls-1" d="M429,468.09l-5-28.81,2.51-.44,5.2,29Z"/><path class="cls-1" d="M251.05,376.48l-22.49,19-1.86-2.15,22.35-18.87Z"/><path class="cls-1" d="M501.9,70.2,487.26,95.54l-2.44-1.39,14.73-25.48Z"/><path class="cls-1" d="M228.57,116.43l22.52,18.85-1.88,2.23-22.56-19.08Z"/>
    </g>
</svg>
