<svg xmlns="http://www.w3.org/2000/svg" width="77" height="64" viewBox="0 0 77 64">
    <path
        id="fa-envelope"
        class="cls-1"
        d="M2742.25,14202.1q-12.465,8.7-18.93,13.5c-1.44,1.1-2.61,2-3.51,2.6a29.027,29.027,0,0,1-3.59,1.9,11.26,11.26,0,0,1-4.18.9h-0.08a11.3,11.3,0,0,1-4.18-.9,29.027,29.027,0,0,1-3.59-1.9c-0.9-.6-2.07-1.5-3.51-2.6q-5.13-3.9-18.88-13.5a19.569,19.569,0,0,1-3.84-3.4v31.1a6.06,6.06,0,0,0,1.78,4.4,5.585,5.585,0,0,0,4.3,1.9h55.93a5.564,5.564,0,0,0,4.29-1.9,6.069,6.069,0,0,0,1.79-4.4v-31.1a19.05,19.05,0,0,1-3.8,3.4h0Zm1.99-19.3a5.948,5.948,0,0,0-4.27-1.9h-55.93a5.319,5.319,0,0,0-4.51,2.1,7.864,7.864,0,0,0-1.57,5.1,9.2,9.2,0,0,0,2.09,5.3,19.383,19.383,0,0,0,4.44,4.5c0.86,0.7,3.46,2.5,7.79,5.6s7.65,5.5,9.96,7.2a8.714,8.714,0,0,1,1.61,1.2,22.55,22.55,0,0,0,2.05,1.4c0.55,0.4,1.21.8,1.98,1.3a14.387,14.387,0,0,0,2.18,1.1,6.85,6.85,0,0,0,1.9.3h0.08a6.8,6.8,0,0,0,1.9-.3,14.387,14.387,0,0,0,2.18-1.1c0.78-.5,1.44-0.9,1.98-1.3a22.55,22.55,0,0,0,2.05-1.4,8.644,8.644,0,0,1,1.62-1.2c2.33-1.7,8.25-6,17.78-12.8a17.488,17.488,0,0,0,4.63-4.8,10.429,10.429,0,0,0,1.87-5.9A6.048,6.048,0,0,0,2744.24,14182.8Z"
        transform="translate(-2673.5 -14176.5)"/>
</svg>
