<svg xmlns="http://www.w3.org/2000/svg" width="36" height="36" viewBox="0 0 72 72">

    <path
        id="fa-phone"
        class="cls-1"
        d="M1141.9,14221.8c-0.18-.5-1.31-1.3-3.4-2.3-0.57-.4-1.38-0.8-2.42-1.4s-2-1.1-2.85-1.6c-0.85-.4-1.65-0.9-2.39-1.3a12.229,12.229,0,0,0-1.12-.8,7.866,7.866,0,0,0-1.59-1,3.061,3.061,0,0,0-1.28-.3,3.538,3.538,0,0,0-2.24,1.3,18.154,18.154,0,0,0-2.46,2.7,22.752,22.752,0,0,1-2.38,2.8,3.224,3.224,0,0,1-2.06,1.3,4.858,4.858,0,0,1-1-.2c-0.41-.2-0.71-0.3-0.92-0.4s-0.57-.3-1.08-0.6a7.651,7.651,0,0,0-.85-0.5,44.058,44.058,0,0,1-18.31-18.4,5.289,5.289,0,0,1-.52-0.8c-0.31-.5-0.52-0.9-0.63-1.1s-0.23-.5-0.38-0.9a3.3,3.3,0,0,1-.22-1,3.467,3.467,0,0,1,1.27-2.1c0.86-.8,1.78-1.6,2.78-2.4a18.074,18.074,0,0,0,2.78-2.4,3.82,3.82,0,0,0,1.27-2.3,2.554,2.554,0,0,0-.31-1.2,8.431,8.431,0,0,0-.96-1.6c-0.43-.7-0.7-1-0.79-1.2-0.44-.7-0.91-1.5-1.38-2.3-0.48-.9-1-1.8-1.57-2.9-0.57-1-1.02-1.8-1.34-2.4-1.05-2.1-1.84-3.2-2.38-3.4a2.158,2.158,0,0,0-.94-0.2,15.329,15.329,0,0,0-3.16.5,21.15,21.15,0,0,0-3.06.9c-1.5.7-3.08,2.5-4.75,5.5a17.415,17.415,0,0,0-2.29,8.3,19.347,19.347,0,0,0,.16,2.4,18.946,18.946,0,0,0,.56,2.6c0.27,0.9.48,1.6,0.65,2.1s0.47,1.3.92,2.5,0.71,1.9.8,2.2a41.469,41.469,0,0,0,3.72,7.8,68.615,68.615,0,0,0,9.65,11.9,66.949,66.949,0,0,0,11.85,9.6,34.846,34.846,0,0,0,7.84,3.7c0.27,0.1,1,.4,2.19.8,1.2,0.5,2.02.8,2.49,1,0.46,0.1,1.17.3,2.12,0.6a15.6,15.6,0,0,0,2.58.6,18.166,18.166,0,0,0,2.35.1,16.568,16.568,0,0,0,8.33-2.3c3.02-1.6,4.84-3.2,5.47-4.7a17.825,17.825,0,0,0,.94-3.1,14.863,14.863,0,0,0,.44-3.1,2.912,2.912,0,0,0-.13-1h0Z"
        transform="translate(-1074.5 -14168.5)"/>
</svg>
