<svg xmlns="http://www.w3.org/2000/svg" width="27" height="27" viewBox="0 0 27 27">

<defs>
    <style>
      .cls-1 {
        fill: #c20000;
        fill-rule: evenodd;
      }
    </style>
  </defs>
  <path id="Forma_1" data-name="Forma 1" class="cls-1" d="M774.383,4701.93a0.593,0.593,0,0,1,0-.86l9.247-9.25a1.184,1.184,0,0,0,0-1.72l-1.726-1.73a1.315,1.315,0,0,0-.863-0.37,1.108,1.108,0,0,0-.863.37l-9.247,9.25a0.607,0.607,0,0,1-.863,0l-9.246-9.25a1.191,1.191,0,0,0-1.726,0l-1.726,1.73a1.184,1.184,0,0,0,0,1.72l9.246,9.25a0.592,0.592,0,0,1,0,.86l-9.246,9.25a1.184,1.184,0,0,0,0,1.72l1.726,1.73a1.191,1.191,0,0,0,1.726,0l9.246-9.25a0.607,0.607,0,0,1,.863,0l9.247,9.25a1.191,1.191,0,0,0,1.726,0l1.726-1.73a1.184,1.184,0,0,0,0-1.72Z" transform="translate(-757 -4688)"/>
</svg>
